Coordinates
version=1
nRows=5
nColumns=42
inDegrees=yes

Units are S.I. units (second, meters, Newtons, ...)
If the header above contains a line with 'inDegrees', this indicates whether rotational values are in degrees (yes) or radians (no).

endheader
time	pelvis_tilt	pelvis_list	pelvis_rotation	pelvis_tx	pelvis_ty	pelvis_tz	hip_flexion_r	hip_adduction_r	hip_rotation_r	knee_angle_r	knee_adduction_r	knee_angle_r_beta	ankle_angle_r	subtalar_angle_r	mtp_angle_r	hip_flexion_l	hip_adduction_l	hip_rotation_l	knee_angle_l	knee_adduction_l	knee_angle_l_beta	ankle_angle_l	subtalar_angle_l	mtp_angle_l	lumbar_extension	lumbar_bending	lumbar_rotation	arm_flex_r	arm_add_r	arm_rot_r	elbow_flex_r	pro_sup_r	wrist_flex_r	wrist_dev_r	arm_flex_l	arm_add_l	arm_rot_l	elbow_flex_l	pro_sup_l	wrist_flex_l	wrist_dev_l
      1.62000000	      9.39019565	     -3.45942677	     -2.34014933	      0.72803398	      0.87640084	     -0.23960029	      1.72786912	      7.64515547	     -6.62225240	     29.04754364	     -3.50459885	      0.50697528	     20.80509189	      4.10506554	     -7.50511699	     -4.29944115	     -7.94056289	    -17.86204715	     67.51588587	    -11.27396544	      1.17837451	      1.19126735	    -14.90832020	     -7.50511699	    -21.74423856	      1.37005689	     -3.67834493	     -0.83945698	     -1.34636413	    -24.17348114	     35.69552628	     90.00000001	      0.00000000	      0.00000000	     -1.01010835	     -5.28555934	    -14.45049591	     43.67337887	     90.00000001	      0.00000000	      0.00000000
      1.63000000	      9.44840839	     -2.97047572	     -2.26617781	      0.73879715	      0.87813205	     -0.23831338	      0.22565368	      7.23819503	     -6.13681659	     27.67040066	     -3.38081633	      0.48293960	     21.25401459	      4.74409534	     -7.50502273	     -2.43406971	     -7.30262018	    -17.69423180	     68.44218438	    -11.83570584	      1.19454146	      3.13814750	    -14.90930671	     -7.50502273	    -21.79945706	      0.79990870	     -3.40222919	     -0.94381893	     -1.31313254	    -23.51819929	     36.79471004	     90.00000001	      0.00000000	      0.00000000	     -0.94880031	     -5.29583034	    -14.47031105	     43.24394632	     90.00000001	      0.00000000	      0.00000000
      1.64000000	      9.71730056	     -2.55427381	     -2.43684834	      0.74943766	      0.87996229	     -0.23677239	     -1.41217303	      6.83441115	     -5.72675484	     26.52009311	     -3.24117083	      0.46286294	     21.56195945	      5.32990114	     -7.50489733	     -0.93632419	     -6.86550994	    -17.49380624	     69.08662594	    -11.77697552	      1.20578909	      4.75448856	    -14.24118596	     -7.50489733	    -22.11904434	      0.22470608	     -2.78240810	     -1.10725745	     -1.37578488	    -22.45954358	     37.91438314	     90.00000001	      0.00000000	      0.00000000	     -0.84137266	     -5.22586093	    -14.54100375	     42.94277584	     90.00000001	      0.00000000	      0.00000000
      1.65000000	     10.07899208	     -2.18386088	     -2.65695768	      0.76018878	      0.88175545	     -0.23509151	     -3.20680871	      6.54380165	     -5.38613094	     25.23126160	     -3.28726285	      0.44036859	     21.70555161	      5.77720259	     -7.50468617	      0.33132354	     -6.46827938	    -17.31652815	     69.31768642	    -11.61513759	      1.20982186	      6.36647808	    -13.20855326	     -7.50468617	    -22.49395533	     -0.34188894	     -2.15275675	     -1.31832231	     -1.60920520	    -20.87675902	     39.10795756	     90.00000001	      0.00000000	      0.00000000	     -0.80312329	     -5.15588730	    -14.70498672	     42.78014884	     90.00000001	      0.00000000	      0.00000000
      1.66000000	     10.15564970	     -1.78515686	     -2.81365470	      0.77062102	      0.88298175	     -0.23370291	     -4.57771505	      6.14178012	     -5.17969681	     24.11974278	     -3.18995331	      0.42096893	     21.88784346	      6.17803490	     -7.50453356	      1.98885481	     -6.03006201	    -17.12439429	     69.42135342	    -11.43460652	      1.21163119	      7.78318859	    -12.69937747	     -7.50453356	    -22.58360571	     -0.86168954	     -1.61148578	     -1.34065921	     -1.68696303	    -20.23363779	     40.08462622	     90.00000001	      0.00000000	      0.00000000	     -0.79497506	     -5.09713792	    -14.81534411	     42.65388556	     90.00000001	      0.00000000	      0.00000000
